<?xml version="1.0" encoding="UTF-8"?>
<svg width="97px" height="542px" viewBox="0 0 97 542" version="1.1" xmlns="http://www.w3.org/2000/svg" xmlns:xlink="http://www.w3.org/1999/xlink">
    <!-- Generator: sketchtool 58 (101010) - https://sketch.com -->
    <title>73A3CBD6-ACE1-4595-9DAA-7960509D9872@2x</title>
    <desc>Created with sketchtool.</desc>
    <g id="Mobile" stroke="none" stroke-width="1" fill="none" fill-rule="evenodd" opacity="0.4">
        <g id="Step-7_4" transform="translate(-139.000000, -61.000000)" stroke="#FFFFFF" stroke-width="5">
            <path d="M228.218079,591.421324 C227.410443,591.272677 225.7346,591.146898 223.403994,591.301263 C221.664694,591.412749 219.660027,590.30361 217.407301,589.746181 C212.189399,588.45695 205.927339,586.007125 200.32581,581.093182 C189.125637,571.265296 184.334628,562.532255 187.830536,537.084948 C191.326443,511.63764 197.891366,488.431479 194.556985,474.041258 C193.997409,471.634312 200.005641,465.256763 200.729628,458.098814 C201.62668,449.234278 197.372172,444.480416 198.981674,442.60803 C200.594061,440.735643 207.277244,425.322041 216.940026,383.434892 C223.170357,356.423927 216.371797,339.655346 220.265754,328.100862 C222.411756,321.740464 223.37515,318.20151 224.332775,306.2897 C225.41443,292.854254 223.372266,287.948886 224.044334,280.933868 C225.050994,270.437068 227.168153,263.399181 227.883487,255.763845 C228.619012,247.92269 230.436192,243.226001 230.052565,235.044671 C229.816043,229.939201 229.674707,229.276005 228.466138,223.52449 C227.246032,217.721521 234.762811,216.838211 226.882596,200.261157 C216.377566,178.166994 195.80882,161.344099 193.84742,160.260688 C192.434058,159.480288 192.373485,156.5445 193.533019,154.048938 C194.0176,153.008405 194.655055,151.679154 194.701206,150.284154 C194.75601,148.63188 193.33111,144.578377 194.995416,145.121512 C204.508208,148.225958 209.368443,148.380323 211.237543,147.405538 C213.547957,146.199206 214.251754,144.618397 213.161446,138.761114 C212.737437,136.479947 214.061382,137.271781 214.915168,135.708124 C215.96221,133.787141 213.585454,133.223995 213.585454,133.223995 C213.585454,133.223995 214.978626,133.50128 215.59589,132.740891 C216.178541,132.020522 216.415063,131.017152 215.477629,129.676466 C214.704606,128.575902 214.525773,127.129448 214.779601,124.914029 C214.85748,124.225105 220.508044,125.088403 220.020579,121.766704 C219.530228,118.445004 215.653578,114.948929 214.205603,111.767301 C212.754744,108.582814 216.374681,103.120019 216.034321,100.35003 C215.696844,97.5857582 212.950884,86.9860483 209.356906,83.4242256 C208.944435,83.015445 208.679069,82.5094718 209.50978,81.580425 C212.273047,78.484555 202.370859,64 183.798127,64 C173.304634,64 164.466795,67.2731035 158.152816,73.4734192 C154.79536,76.7693916 151.443672,80.6913986 150.356249,85.7882925 C147.218008,100.481526 151.140809,112.636317 157.293261,122.372728 C159.006602,125.085545 159.857504,124.239398 160.324778,125.068393 C164.091821,131.757531 163.918756,134.353144 163.111121,142.311503 C162.202531,151.258938 160.287281,150.261285 153.748318,161.524191 C151.111965,166.066516 146.093087,170.960449 143.91824,177.972609 C142.758707,181.714523 142.005875,188.921068 142,194.140882 C141.988568,203.405623 142.908696,212.558879 149.643799,228.827204 C159.006602,251.441633 161.570845,266.512202 162.615002,276.657394 C163.523592,285.510496 165.07829,301.364323 161.504503,306.609864 C158.400875,311.172199 151.498476,324.816324 151.100427,332.63461 C150.800448,338.531914 151.011011,339.54386 152.707045,346.235856 C156.716378,362.069673 164.414875,366.386168 161.856401,379.407117 C158.550865,396.218577 153.093556,402.313124 162.289063,441.275919 C163.809149,447.724934 160.512265,448.559647 159.984418,456.246437 C159.459455,463.933228 160.477652,464.882285 158.706623,469.047274 C155.028997,477.694556 149.704372,498.216486 156.228913,527.745883 C161.706412,552.532853 166.425311,560.208209 163.552436,581.970774 C163.168809,584.877976 159.964227,591.152615 161.735256,595.474827 C162.805373,598.096169 167.449277,600 170.656744,600 C179.157107,600 182.133821,594.640114 193.446487,598.116179 C199.330688,599.925676 218.58991,600.048596 223.897229,599.871363 C229.207432,599.696988 233.239841,598.070441 232.988897,594.911682 C232.740837,591.752923 231.062109,591.950166 228.218079,591.421324" id="Fill-9" transform="translate(187.500000, 332.000000) scale(-1, 1) translate(-187.500000, -332.000000) "></path>
        </g>
    </g>
</svg>