<?xml version="1.0" encoding="UTF-8"?>
<svg width="174px" height="527px" viewBox="0 0 174 527" version="1.1" xmlns="http://www.w3.org/2000/svg" xmlns:xlink="http://www.w3.org/1999/xlink">
    <!-- Generator: sketchtool 58 (101010) - https://sketch.com -->
    <title>C617424D-5C53-4C8B-BD95-2AFA3B32A6F6@2x</title>
    <desc>Created with sketchtool.</desc>
    <g id="Mobile" stroke="none" stroke-width="1" fill="none" fill-rule="evenodd" opacity="0.4">
        <g id="Step-6_6" transform="translate(-101.000000, -61.000000)" stroke="#FFFFFF" stroke-width="5">
            <path d="M258.432155,177.892189 C254.000931,168.412269 247.420982,164.428035 236.618829,161.268988 C232.424494,160.043711 228.383441,158.376668 224.43157,156.512357 C221.664145,155.206507 219.100167,154.925888 216.357824,154.089588 C213.994505,153.367202 212.957766,152.580913 210.725432,150.908313 C206.896186,148.040998 204.134335,144.176236 202.710212,137.54696 C204.934185,135.813235 206.623067,133.629408 207.840956,131.164962 C207.840956,131.162184 207.843743,131.159405 207.84653,131.156627 C208.331457,130.167514 208.74671,129.139504 209.092289,128.078153 C209.139667,127.928119 209.178684,127.755858 209.217701,127.589154 C209.671972,125.722065 209.750006,122.774177 211.048717,121.596133 C211.695285,121.009889 212.514643,120.645918 213.211377,120.118021 C215.588631,118.300944 215.647156,117.700808 216.020605,114.739027 C216.198969,113.327597 218.303104,106.903923 216.511106,105.06184 C215.27092,103.78933 213.899749,105.017386 213.729746,104.119961 C213.56253,103.236428 213.888601,100.219079 214.11713,97.9907977 C214.125491,97.8907751 214.133852,97.8018661 214.144999,97.7074004 C214.150573,97.657389 214.156147,97.6045993 214.158934,97.5573664 C214.239755,96.7571856 214.301068,96.0903682 214.306641,95.7375107 C214.367954,92.5979122 214.15336,89.2527118 213.439905,86.0464316 C214.211886,82.6262141 213.774337,78.6336451 210.644611,74.4882638 C209.111798,72.4572492 204.92025,68.0173568 202.997266,67.1393806 C199.711472,65.6362631 195.982556,64.8388607 192.40692,64.4109862 C188.808989,63.9775549 184.606294,63.7274984 181.086397,64.49156 C177.778308,65.2111671 174.096769,66.0947001 171.139833,67.4199996 C168.673397,68.5258051 168.302735,70.4540187 167.254848,72.668408 C166.839595,73.5463842 166.190239,75.0078256 165.423833,75.6190749 C164.707591,76.1942049 163.832494,75.9635972 163.255599,76.8332382 C161.842624,78.961497 161.745081,88.8331725 161.745081,92.2895092 C161.689342,93.4508828 161.669834,94.6066996 161.692129,95.7375107 C161.717212,97.0905943 162.511488,102.844673 162.271811,104.119961 C162.101808,105.017386 160.72785,103.78933 159.487665,105.06184 C157.695667,106.903923 159.802588,113.327597 159.980952,114.739027 C160.354401,117.700808 160.41014,118.300944 162.787394,120.118021 C163.484127,120.645918 164.303486,121.009889 164.950054,121.596133 C166.365816,122.879756 166.326799,126.280525 166.909268,128.078153 C168.113223,131.79566 170.16998,135.121412 173.288558,137.552517 C171.864435,144.176236 169.102585,148.040998 165.273338,150.908313 C163.043792,152.580913 162.004266,153.367202 159.640946,154.089588 C156.898604,154.925888 154.334625,155.206507 151.567201,156.512357 C147.615329,158.376668 143.574276,160.043711 139.379942,161.268988 C128.577789,164.428035 121.997839,168.412269 117.569402,177.892189 C113.316542,186.98869 108.247111,246.635504 108.249898,249.036046 C108.258259,253.867694 107.305127,260.799816 106.310192,265.406413 C103.927364,276.431127 103.305878,287.669778 104.830331,296.869079 C106.580525,307.404794 107.104468,324.372517 107.235454,329.35142 C107.30234,331.904775 106.867579,334.616499 106.232158,336.994814 C105.106237,341.231883 104.54885,346.013519 105.153615,350.417292 C106.276749,358.63026 108.353014,368.92981 109.099912,369.824456 C110.64666,371.68321 118.700897,376.9983 120.857984,377.281697 C123.017857,377.562316 126.961367,380.315716 128.006467,380.279597 C130.383721,380.196245 129.288457,376.095318 128.552706,374.995069 C127.36826,373.222447 125.520523,372.019397 124.015579,370.546842 C121.972757,368.551947 120.554208,366.951585 120.049773,364.181514 C119.63452,361.922671 119.57042,358.538572 119.564847,356.121359 C119.56206,355.148917 120.164037,352.151018 121.68849,353.048443 C122.663916,353.623573 122.758672,353.706925 122.956544,356.827074 C123.15163,359.947224 124.575753,368.151856 130.509133,365.856893 C132.543595,365.070604 132.050307,362.675618 131.013568,360.452894 C129.976829,358.230169 129.940599,357.191046 129.450099,355.643474 C128.959598,354.095902 128.708774,351.784268 128.616806,349.330936 C128.402212,343.674102 124.049022,339.098068 123.474914,338.309 C120.576503,334.316431 124.422471,319.996528 127.811382,306.665738 C130.216505,297.194152 130.707006,290.864944 130.183062,281.04328 C129.91273,276.00603 128.848121,268.579352 129.770596,263.581 C130.804548,257.976956 133.733615,249.819557 135.227411,241.087027 C137.194986,229.589985 140.071101,223.157975 139.566666,215.67295 C141.049315,231.368164 146.57859,244.857324 145.382996,257.910274 C143.914282,273.919448 146.9604,278.512152 145.054138,288.661669 C144.042481,294.048997 142.292287,295.415973 140.661931,302.175834 C139.223874,308.143849 137.880572,319.235245 137.228429,327.862195 C135.840537,346.258019 136.526122,342.609972 136.183329,358.585805 C135.840537,374.561638 137.234003,392.524031 141.76277,413.150915 C146.291536,433.777799 146.687281,438.81227 145.070859,452.879339 C143.457225,466.943628 140.99915,477.609928 145.605951,496.075212 C150.212751,514.540497 155.845143,535.592477 157.252545,547.286786 C158.657159,558.978318 158.888474,563.159818 156.664502,566.888439 C154.437742,570.617059 147.880088,577.176875 147.72402,579.27735 C147.567952,581.380603 144.83397,584.617446 155.000703,584.617446 C165.393176,584.617446 167.224192,585.370394 169.364556,583.939515 C169.882926,583.592214 170.601955,583.61722 171.045077,584.053429 C171.758532,584.756366 172.965274,585.350945 175.529253,584.756366 C177.978967,584.189571 179.208004,582.455846 179.110462,579.430162 C179.049149,577.582522 179.180135,576.515615 179.545223,573.223204 C179.971624,569.36122 178.324547,566.082701 179.227513,561.262167 C180.517863,554.377278 177.326825,552.293473 177.555353,531.010886 C177.756012,512.626175 182.251336,496.836495 180.947051,485.88402 C179.642766,474.931545 174.581695,458.438928 175.261707,450.24541 C175.941719,442.051891 182.942495,436.358938 181.512798,408.424847 C180.827213,394.991255 183.965299,391.740521 185.060564,353.606902 C185.144172,350.739587 190.854598,350.739587 190.938206,353.606902 C192.033471,391.740521 195.174345,394.991255 194.485972,408.424847 C193.056276,436.358938 200.057052,442.051891 200.739851,450.24541 C201.419862,458.438928 196.356005,474.931545 195.05172,485.88402 C193.747435,496.836495 198.242758,512.626175 198.443418,531.010886 C198.674733,552.293473 195.480908,554.377278 196.771258,561.262167 C197.674224,566.082701 196.027146,569.36122 196.456334,573.223204 C196.818636,576.515615 196.949621,577.582522 196.891096,579.430162 C196.790766,582.455846 198.022591,584.189571 200.472305,584.756366 C203.033497,585.350945 204.240239,584.756366 204.953694,584.053429 C205.396816,583.61722 206.115845,583.592214 206.634214,583.939515 C208.777366,585.370394 210.605594,584.617446 220.998068,584.617446 C231.164801,584.617446 228.430819,581.380603 228.274751,579.27735 C228.118683,577.176875 221.561029,570.617059 219.337056,566.888439 C217.110296,563.159818 217.341612,558.978318 218.749013,547.286786 C220.156414,535.592477 225.786019,514.540497 230.395607,496.075212 C235.002408,477.609928 232.544332,466.943628 230.927911,452.879339 C229.31149,438.81227 229.707234,433.777799 234.236001,413.150915 C238.764767,392.524031 240.161021,374.561638 239.815441,358.585805 C239.472648,342.609972 240.161021,346.258019 238.770341,327.862195 C238.118199,319.235245 236.774897,308.143849 235.33684,302.175834 C233.709271,295.415973 231.95629,294.048997 230.944633,288.661669 C229.03837,278.512152 232.084489,273.919448 230.618562,257.910274 C229.422967,244.857324 234.949456,231.368164 236.432104,215.67295 C235.927669,223.157975 238.803785,229.589985 240.771359,241.087027 C242.265156,249.819557 245.194222,257.976956 246.228175,263.581 C247.153436,268.579352 246.086041,276.00603 245.818495,281.04328 C245.291765,290.864944 245.782265,297.194152 248.190176,306.665738 C251.579086,319.996528 255.425054,334.316431 252.523857,338.309 C251.952535,339.098068 247.599346,343.674102 247.384752,349.330936 C247.289996,351.784268 247.039172,354.095902 246.551459,355.643474 C246.060959,357.191046 246.021942,358.230169 244.985202,360.452894 C243.948463,362.675618 243.457963,365.070604 245.492424,365.856893 C251.423018,368.151856 252.847141,359.947224 253.045013,356.827074 C253.242886,353.706925 253.334854,353.623573 254.310281,353.048443 C255.83752,352.151018 256.436711,355.148917 256.433924,356.121359 C256.42835,358.538572 256.364251,361.922671 255.951785,364.181514 C255.444563,366.951585 254.026014,368.551947 251.983192,370.546842 C250.478248,372.019397 248.633298,373.222447 247.446064,374.995069 C246.710314,376.095318 245.617836,380.196245 247.99509,380.279597 C249.037403,380.315716 252.980914,377.562316 255.140787,377.281697 C257.30066,376.9983 265.35211,371.68321 266.898858,369.824456 C267.645756,368.92981 269.722022,358.63026 270.847943,350.417292 C271.44992,346.013519 270.892534,341.231883 269.766613,336.994814 C269.133979,334.616499 268.699217,331.904775 268.766104,329.35142 C268.894303,324.372517 269.418246,307.404794 271.16844,296.869079 C272.695679,287.669778 272.071406,276.431127 269.688578,265.406413 C268.693643,260.799816 267.740512,253.867694 267.748873,249.036046 C267.754447,246.635504 262.682228,186.98869 258.432155,177.892189 Z" id="Fill-11"></path>
        </g>
    </g>
</svg>