<?xml version="1.0" encoding="UTF-8"?>
<svg width="40px" height="14px" viewBox="0 0 40 14" version="1.1" xmlns="http://www.w3.org/2000/svg" xmlns:xlink="http://www.w3.org/1999/xlink">
    <!-- Generator: Sketch 63.1 (92452) - https://sketch.com -->
    <title>pointer</title>
    <desc>Created with Sketch.</desc>
    <g id="Mobile" stroke="none" stroke-width="1" fill="none" fill-rule="evenodd">
        <g id="[M]-Step-6_2" transform="translate(-7.000000, -219.000000)" fill="#FFFFFF">
            <g id="pointer" transform="translate(7.000000, 219.000000)">
                <path d="M40,1.10188411 L40,12.8981159 C40,13.1742583 39.7761424,13.3981159 39.5,13.3981159 C39.3788884,13.3981159 39.2618934,13.3541568 39.1707477,13.2744042 L32.8600877,7.75257669 C32.444451,7.38889464 32.4023335,6.75713202 32.7660156,6.34149539 C32.79525,6.30808462 32.8266769,6.27665773 32.8600877,6.24742331 L39.1707477,0.725595766 C39.378566,0.54375474 39.6944473,0.564813494 39.8762883,0.772631809 C39.9560409,0.863777557 40,0.98077254 40,1.10188411 Z" id="Rectangle"></path>
                <path d="M8,1.10188411 L8,12.8981159 C8,13.1742583 7.77614237,13.3981159 7.5,13.3981159 C7.37888843,13.3981159 7.26189344,13.3541568 7.1707477,13.2744042 L0.860087651,7.75257669 C0.44445102,7.38889464 0.402333512,6.75713202 0.766015564,6.34149539 C0.795249989,6.30808462 0.82667688,6.27665773 0.860087651,6.24742331 L7.1707477,0.725595766 C7.37856601,0.54375474 7.69444732,0.564813494 7.87628835,0.772631809 C7.95604088,0.863777557 8,0.98077254 8,1.10188411 Z" id="Rectangle-Copy-11" transform="translate(4.000000, 7.000000) scale(-1, 1) translate(-4.000000, -7.000000) "></path>
            </g>
        </g>
    </g>
</svg>